<svg width="27" height="29" viewBox="0 0 27 29" fill="none" xmlns="http://www.w3.org/2000/svg">
<path d="M26.0853 14.9552L14.4603 1.20521C13.9708 0.624957 13.0305 0.624957 12.5409 1.20521L0.915922 14.9552C0.748595 15.1527 0.638762 15.3976 0.599779 15.6603C0.560796 15.9229 0.594342 16.192 0.696338 16.4347C0.903005 16.9311 1.36542 17.2501 1.87563 17.2501H4.45896V26.8751C4.45896 27.2398 4.59505 27.5895 4.83728 27.8474C5.07952 28.1052 5.40806 28.2501 5.75063 28.2501H9.62563C9.9682 28.2501 10.2967 28.1052 10.539 27.8474C10.7812 27.5895 10.9173 27.2398 10.9173 26.8751V21.3751H16.084V26.8751C16.084 27.2398 16.22 27.5895 16.4623 27.8474C16.7045 28.1052 17.0331 28.2501 17.3756 28.2501H21.2506C21.5932 28.2501 21.9217 28.1052 22.164 27.8474C22.4062 27.5895 22.5423 27.2398 22.5423 26.8751V17.2501H25.1256C25.3758 17.2512 25.6208 17.1748 25.8309 17.0303C26.041 16.8857 26.207 16.6792 26.3088 16.4359C26.4105 16.1927 26.4436 15.9231 26.4039 15.6602C26.3642 15.3973 26.2535 15.1523 26.0853 14.9552Z" fill="#716B6B"/>
</svg>
