<svg width="29" height="28" viewBox="0 0 29 28" fill="none" xmlns="http://www.w3.org/2000/svg">
<path d="M14.5 0C10.5651 0 10.0703 0.0175 8.52419 0.084C6.97813 0.154 5.92506 0.3885 5.0025 0.735C4.0348 1.08643 3.15827 1.6377 2.43419 2.35025C1.69664 3.04972 1.12576 3.89592 0.76125 4.83C0.402375 5.719 0.157688 6.7375 0.087 8.225C0.018125 9.72125 0 10.1973 0 14.0018C0 17.8027 0.018125 18.2788 0.087 19.7715C0.1595 21.2625 0.402375 22.2792 0.76125 23.17C1.13281 24.0905 1.62763 24.871 2.43419 25.6497C3.23894 26.4285 4.04731 26.908 5.00069 27.265C5.92506 27.6115 6.97631 27.8477 8.52056 27.916C10.0684 27.9825 10.5614 28 14.5 28C18.4386 28 18.9298 27.9825 20.4776 27.916C22.0201 27.846 23.0767 27.6115 23.9993 27.265C24.9664 26.9134 25.8423 26.3621 26.5658 25.6497C27.3724 24.871 27.8672 24.0905 28.2388 23.17C28.5958 22.2792 28.8405 21.2625 28.913 19.7715C28.9819 18.2788 29 17.8027 29 14C29 10.1972 28.9819 9.72125 28.913 8.22675C28.8405 6.7375 28.5958 5.719 28.2388 4.83C27.8743 3.89589 27.3034 3.04968 26.5658 2.35025C25.842 1.63743 24.9654 1.08613 23.9975 0.735C23.0731 0.3885 22.0182 0.15225 20.4758 0.084C18.9279 0.0175 18.4368 0 14.4964 0H14.5018H14.5ZM13.2004 2.5235H14.5018C18.3733 2.5235 18.8319 2.53575 20.3598 2.604C21.7736 2.66525 22.5421 2.8945 23.0532 3.08525C23.7292 3.339 24.2132 3.6435 24.7207 4.1335C25.2282 4.6235 25.5417 5.089 25.8046 5.7435C26.0039 6.23525 26.2396 6.97725 26.303 8.34225C26.3737 9.8175 26.3882 10.2603 26.3882 13.9965C26.3882 17.7327 26.3737 18.1772 26.303 19.6525C26.2396 21.0175 26.0021 21.7577 25.8046 22.2513C25.5721 22.8591 25.201 23.4088 24.7189 23.8595C24.2114 24.3495 23.7292 24.6523 23.0514 24.906C22.5439 25.0985 21.7754 25.326 20.3598 25.389C18.8319 25.4555 18.3733 25.4713 14.5018 25.4713C10.6303 25.4713 10.1699 25.4555 8.642 25.389C7.22825 25.326 6.46156 25.0985 5.95044 24.906C5.32059 24.6819 4.75079 24.3243 4.28294 23.8595C3.80036 23.4081 3.42875 22.8579 3.19544 22.2495C2.99787 21.7577 2.76044 21.0158 2.697 19.6507C2.62812 18.1755 2.61363 17.7327 2.61363 13.993C2.61363 10.255 2.62812 9.814 2.697 8.33875C2.76225 6.97375 2.99788 6.23175 3.19725 5.73825C3.46006 5.0855 3.77544 4.61825 4.28294 4.12825C4.79044 3.63825 5.27256 3.3355 5.95044 3.08175C6.46156 2.88925 7.22825 2.66175 8.642 2.59875C9.97962 2.53925 10.498 2.52175 13.2004 2.52V2.5235ZM22.2412 4.8475C22.0127 4.8475 21.7864 4.89095 21.5753 4.97538C21.3642 5.05981 21.1724 5.18356 21.0108 5.33956C20.8492 5.49556 20.7211 5.68076 20.6336 5.88459C20.5462 6.08842 20.5012 6.30688 20.5012 6.5275C20.5012 6.74812 20.5462 6.96658 20.6336 7.17041C20.7211 7.37423 20.8492 7.55944 21.0108 7.71544C21.1724 7.87144 21.3642 7.99519 21.5753 8.07962C21.7864 8.16405 22.0127 8.2075 22.2412 8.2075C22.7027 8.2075 23.1452 8.0305 23.4716 7.71544C23.7979 7.40038 23.9812 6.97306 23.9812 6.5275C23.9812 6.08194 23.7979 5.65462 23.4716 5.33956C23.1452 5.0245 22.7027 4.8475 22.2412 4.8475ZM14.5018 6.811C13.5141 6.79612 12.5332 6.9711 11.6163 7.32575C10.6993 7.68039 9.86456 8.20762 9.16065 8.87674C8.45674 9.54586 7.89772 10.3435 7.51615 11.2232C7.13458 12.1029 6.93807 13.0471 6.93807 14.0009C6.93807 14.9546 7.13458 15.8988 7.51615 16.7785C7.89772 17.6583 8.45674 18.4559 9.16065 19.125C9.86456 19.7941 10.6993 20.3214 11.6163 20.676C12.5332 21.0306 13.5141 21.2056 14.5018 21.1908C16.4567 21.1613 18.3211 20.3908 19.6928 19.0457C21.0644 17.7005 21.8332 15.8886 21.8332 14.0009C21.8332 12.1132 21.0644 10.3012 19.6928 8.95606C18.3211 7.6109 16.4567 6.84045 14.5018 6.811ZM14.5018 9.33275C15.7839 9.33275 17.0134 9.82448 17.9199 10.6998C18.8265 11.575 19.3358 12.7622 19.3358 14C19.3358 15.2378 18.8265 16.425 17.9199 17.3002C17.0134 18.1755 15.7839 18.6672 14.5018 18.6672C13.2198 18.6672 11.9902 18.1755 11.0837 17.3002C10.1772 16.425 9.66788 15.2378 9.66788 14C9.66788 12.7622 10.1772 11.575 11.0837 10.6998C11.9902 9.82448 13.2198 9.33275 14.5018 9.33275Z" fill="black" fill-opacity="0.31"/>
</svg>
