<svg width="53" height="53" viewBox="0 0 53 53" fill="none" xmlns="http://www.w3.org/2000/svg">
<path d="M53 0H0V53H53V0Z" fill="white"/>
<path d="M40.6497 14.8189V47.9854C40.5398 48.8451 40.1039 49.6299 39.4318 50.1779C38.7597 50.7259 37.9027 50.9953 37.0376 50.9306L14.7539 50.8112C13.8776 50.8857 13.0067 50.6154 12.327 50.0578C11.6473 49.5002 11.2125 48.6994 11.1152 47.8262V5.55884C11.2157 4.69191 11.6476 3.89729 12.3207 3.34102C12.9938 2.78476 13.8561 2.50989 14.7274 2.57386H37.3696C38.2481 2.49564 39.1223 2.7643 39.805 3.32225C40.4876 3.88021 40.9243 4.68309 41.0215 5.55884V5.55884C40.9243 6.43459 40.4876 7.23747 39.805 7.79543C39.1223 8.35338 38.2481 8.62204 37.3696 8.54382H18.552" stroke="black" stroke-miterlimit="10"/>
<path d="M18.3653 16.6494H31.7249C32.1742 16.6477 32.6194 16.7346 33.035 16.9052C33.4507 17.0757 33.8285 17.3266 34.1468 17.6434C34.4651 17.9601 34.7177 18.3366 34.89 18.7511C35.0624 19.1656 35.1511 19.6101 35.1511 20.059V26.1218C35.1511 27.0296 34.7901 27.9002 34.1476 28.5421C33.5051 29.1839 32.6336 29.5446 31.7249 29.5446H21.7915C20.8839 29.5411 20.0145 29.1793 19.3727 28.5382C18.7309 27.8971 18.3688 27.0285 18.3653 26.1218V25.9228C18.3618 25.4711 18.4479 25.0231 18.6185 24.6048C18.7891 24.1865 19.0409 23.806 19.3594 23.4853C19.6779 23.1647 20.0568 22.9102 20.4742 22.7365C20.8917 22.5629 21.3394 22.4735 21.7915 22.4735H28.1526" stroke="black" stroke-miterlimit="10"/>
<path d="M28.3125 32.3838L33.412 36.4434L28.2461 40.3968" stroke="black" stroke-miterlimit="10"/>
<path d="M23.6639 32.5693L18.5645 36.6422L23.717 40.5824" stroke="black" stroke-miterlimit="10"/>
<path d="M15.0469 44.5889H37.2508" stroke="black" stroke-miterlimit="10"/>
</svg>
