<svg width="27" height="23" viewBox="0 0 27 23" fill="none" xmlns="http://www.w3.org/2000/svg">
<path d="M22.5423 0.5H4.45898C3.43127 0.5 2.44565 0.934597 1.71895 1.70818C0.992242 2.48177 0.583984 3.53098 0.583984 4.625V18.375C0.583984 19.469 0.992242 20.5182 1.71895 21.2918C2.44565 22.0654 3.43127 22.5 4.45898 22.5H22.5423C23.57 22.5 24.5557 22.0654 25.2824 21.2918C26.0091 20.5182 26.4173 19.469 26.4173 18.375V4.625C26.4173 3.53098 26.0091 2.48177 25.2824 1.70818C24.5557 0.934597 23.57 0.5 22.5423 0.5ZM22.5423 3.25L14.1465 9.39625C13.9501 9.51693 13.7274 9.58047 13.5007 9.58047C13.2739 9.58047 13.0512 9.51693 12.8548 9.39625L4.45898 3.25H22.5423Z" fill="#696767"/>
</svg>
