<?xml version="1.0" encoding="utf-8"?>
<!-- Generator: Adobe Illustrator 23.0.1, SVG Export Plug-In . SVG Version: 6.00 Build 0)  -->
<svg version="1.1" id="Layer_1" xmlns="http://www.w3.org/2000/svg" xmlns:xlink="http://www.w3.org/1999/xlink" x="0px" y="0px"
	 viewBox="0 0 53 53" style="enable-background:new 0 0 53 53;" xml:space="preserve">
<style type="text/css">
	.st0{fill:#FFFFFF;}
	.st1{fill:none;stroke:#000000;stroke-miterlimit:10;}
	.st2{fill:#FFFFFF;stroke:#000000;stroke-miterlimit:10;}
	.st3{fill:#FFFFFF;stroke:#000000;stroke-width:0.5;stroke-miterlimit:10;}
</style>
<path class="st0" d="M52.9,0h-53v53h53V0z"/>
<path class="st1" d="M40.6,14.8V48c-0.1,0.9-0.5,1.6-1.2,2.2c-0.7,0.5-1.5,0.8-2.4,0.8l-22.3-0.1c-0.9,0.1-1.7-0.2-2.4-0.8
	c-0.7-0.6-1.1-1.4-1.2-2.2V5.6c0.1-0.9,0.5-1.7,1.2-2.2c0.7-0.6,1.5-0.8,2.4-0.8h22.6c0.9-0.1,1.8,0.2,2.4,0.7
	c0.7,0.6,1.1,1.4,1.2,2.2l0,0c-0.1,0.9-0.5,1.7-1.2,2.2c-0.7,0.6-1.6,0.8-2.4,0.7H18.6"/>
<path class="st2" d="M34.8,22.5L33.6,22c0-0.3,0-0.7-0.1-1l1.1-0.7c0.1-0.1,0.2-0.2,0.1-0.4l-0.2-0.8c0-0.1-0.2-0.2-0.3-0.2l-1.3,0
	c-0.1-0.3-0.3-0.6-0.5-0.9l0.7-1.1c0.1-0.1,0.1-0.3,0-0.4L32.5,16c-0.1-0.1-0.3-0.1-0.4-0.1l-1.2,0.6c-0.3-0.2-0.5-0.4-0.8-0.6
	l0.2-1.3c0-0.2-0.1-0.3-0.2-0.4L29.4,14c-0.1-0.1-0.3,0-0.4,0.1l-0.8,1c-0.3-0.1-0.6-0.2-1-0.2l-0.4-1.3c0-0.1-0.2-0.3-0.3-0.3h-0.8
	c-0.2,0-0.3,0.1-0.3,0.3L25,14.8c-0.3,0-0.7,0.1-1,0.2l-0.8-1c-0.1-0.1-0.3-0.2-0.4-0.1l-0.7,0.3c-0.1,0.1-0.2,0.2-0.2,0.4l0.2,1.3
	c-0.3,0.2-0.6,0.4-0.8,0.6l-1.2-0.6c-0.1-0.1-0.3,0-0.4,0.1l-0.5,0.6c-0.1,0.1-0.1,0.3,0,0.4l0.7,1.1c-0.2,0.3-0.3,0.6-0.5,0.9
	l-1.3,0c-0.2,0-0.3,0.1-0.3,0.2l-0.2,0.8c0,0.1,0,0.3,0.1,0.4l1.1,0.7c-0.1,0.3-0.1,0.6-0.1,1l-1.2,0.5c-0.1,0.1-0.2,0.2-0.2,0.4
	l0.1,0.8c0,0.2,0.1,0.3,0.3,0.3l1.3,0.2c0.1,0.3,0.2,0.6,0.3,0.9l-0.9,0.9c-0.1,0.1-0.1,0.3-0.1,0.4l0.4,0.7
	c0.1,0.1,0.2,0.2,0.4,0.2l1.3-0.3c0.2,0.3,0.4,0.5,0.7,0.7L20.4,29c-0.1,0.1,0,0.3,0.1,0.4l0.6,0.5c0.1,0.1,0.3,0.1,0.4,0l1-0.8
	c0.3,0.2,0.6,0.3,0.9,0.4l0.1,1.3c0,0.2,0.1,0.3,0.3,0.3l0.8,0.2c0.2,0,0.3,0,0.4-0.2l0.6-1.2c0.2,0,0.3,0,0.5,0c0.2,0,0.3,0,0.5,0
	l0.6,1.2c0.1,0.1,0.2,0.2,0.4,0.2l0.8-0.2c0.2,0,0.3-0.2,0.3-0.3l0.1-1.3c0.3-0.1,0.6-0.2,0.9-0.4l1,0.8c0.1,0.1,0.3,0.1,0.4,0
	l0.6-0.5c0.1-0.1,0.2-0.3,0.1-0.4l-0.4-1.2c0.2-0.2,0.5-0.5,0.7-0.7l1.3,0.3c0.1,0,0.3,0,0.4-0.2l0.4-0.7c0.1-0.1,0.1-0.3-0.1-0.4
	l-0.9-0.9c0.1-0.3,0.2-0.6,0.3-0.9l1.3-0.2c0.2,0,0.3-0.2,0.3-0.3l0.1-0.8C35.1,22.7,35,22.6,34.8,22.5z M26.1,26.8
	c-2.5,0-4.5-2-4.5-4.5c0-2.5,2-4.5,4.5-4.5c2.5,0,4.5,2,4.5,4.5C30.6,24.8,28.6,26.8,26.1,26.8z"/>
<g>
	<path class="st3" d="M33.6,47.7H18.5c-0.7,0-1.3-0.6-1.3-1.3v-9.1c0-0.7,0.6-1.3,1.3-1.3h15.1c0.7,0,1.3,0.6,1.3,1.3v9.1
		C34.9,47.1,34.3,47.7,33.6,47.7z"/>
	<path class="st3" d="M33.6,35.9H18.5c-0.7,0-1.3,0.6-1.3,1.3v1.3h17.7v-1.3C34.9,36.5,34.3,35.9,33.6,35.9z"/>
	<path class="st3" d="M22.9,37.4h-3.6c-0.1,0-0.2-0.1-0.2-0.2l0,0c0-0.1,0.1-0.2,0.2-0.2h3.6c0.1,0,0.2,0.1,0.2,0.2l0,0
		C23.1,37.4,23,37.4,22.9,37.4z"/>
	<path class="st3" d="M25.6,37.4h-1.4c-0.1,0-0.2-0.1-0.2-0.2l0,0c0-0.1,0.1-0.2,0.2-0.2h1.4c0.1,0,0.2,0.1,0.2,0.2l0,0
		C25.9,37.4,25.8,37.4,25.6,37.4z"/>
	<path class="st3" d="M28.4,37.4H27c-0.1,0-0.2-0.1-0.2-0.2l0,0c0-0.1,0.1-0.2,0.2-0.2h1.4c0.1,0,0.2,0.1,0.2,0.2l0,0
		C28.7,37.4,28.6,37.4,28.4,37.4z"/>
</g>
</svg>
