<svg width="53" height="53" viewBox="0 0 53 53" fill="none" xmlns="http://www.w3.org/2000/svg">
<path d="M53 0H0V53H53V0Z" fill="white"/>
<path d="M4.67383 29.2662V12.2054C4.67383 10.7417 5.25586 9.33797 6.2919 8.30297C7.32793 7.26798 8.73309 6.68652 10.1983 6.68652H43.8495C45.3146 6.68652 46.7198 7.26798 47.7558 8.30297C48.7919 9.33797 49.3739 10.7417 49.3739 12.2054V29.452" stroke="black" stroke-miterlimit="10"/>
<path d="M23.0798 10.3345H8.84375V12.3908H23.0798V10.3345Z" stroke="black" stroke-width="0.75" stroke-miterlimit="10"/>
<path d="M44.2614 10.3345H30.0254V12.3908H44.2614V10.3345Z" stroke="black" stroke-width="0.75" stroke-miterlimit="10"/>
<path d="M15.5117 14.089V17.9495H38.7249V13.9961" stroke="black" stroke-miterlimit="10"/>
<path d="M27.1172 18.3213V21.9033" stroke="black" stroke-miterlimit="10"/>
<path d="M30.6231 34.1218C31.7287 33.7477 32.6979 33.0534 33.4073 32.1273C34.1168 31.2012 34.5344 30.0852 34.6071 28.9213C34.6071 25.6445 31.3269 22.9779 27.2102 22.9514C23.0934 22.9248 19.7336 25.6047 19.707 28.8417C19.7888 30.1403 20.2839 31.3788 21.1201 32.3764C21.9562 33.3741 23.0897 34.0786 24.355 34.3872" stroke="black" stroke-miterlimit="10"/>
<path d="M24.1828 33.9492V35.7137C24.1862 36.0586 24.0843 36.3965 23.8907 36.6821C23.3825 37.5029 22.6499 38.1612 21.7792 38.5793C21.399 38.7193 21.0694 38.9697 20.8328 39.2983C20.5961 39.6269 20.4632 40.0187 20.4512 40.4233V45.4381" stroke="black" stroke-miterlimit="10"/>
<path d="M31.0753 33.6841L31.0089 35.4353C30.9962 35.7878 31.0936 36.1356 31.2878 36.4303C31.7839 37.2545 32.5079 37.918 33.3727 38.3407C33.7581 38.4767 34.0922 38.7279 34.3298 39.0602C34.5673 39.3925 34.6968 39.7897 34.7007 40.198V45.2127" stroke="black" stroke-miterlimit="10"/>
<path d="M16.6796 34.5862H16.5468C15.3128 34.2614 14.2131 33.5554 13.4047 32.569C12.5962 31.5827 12.1203 30.3664 12.0449 29.0939C12.0449 25.817 15.418 23.177 19.5348 23.1902C19.9175 23.1866 20.2998 23.2177 20.6768 23.2831" stroke="black" stroke-miterlimit="10"/>
<path d="M16.5344 34.2144V35.9788C16.5403 36.3241 16.4382 36.6627 16.2422 36.9473C15.7376 37.771 15.004 38.4302 14.1307 38.8444C13.7495 38.9829 13.4189 39.2329 13.1821 39.5618C12.9452 39.8908 12.813 40.2834 12.8027 40.6884V45.7032" stroke="black" stroke-miterlimit="10"/>
<path d="M37.4894 34.5862H37.6222C38.8567 34.2601 39.9571 33.5541 40.7675 32.5683C41.5779 31.5825 42.0572 30.367 42.1374 29.0939C42.1374 25.817 38.751 23.177 34.6343 23.1902C34.2515 23.1866 33.8693 23.2177 33.4922 23.2831" stroke="black" stroke-miterlimit="10"/>
<path d="M37.6348 34.2144V35.9788C37.6347 36.3233 37.7363 36.6602 37.9269 36.9473C38.4315 37.771 39.1652 38.4302 40.0384 38.8444C40.4196 38.9829 40.7502 39.2329 40.9871 39.5618C41.224 39.8908 41.3561 40.2834 41.3664 40.6884V45.7032" stroke="black" stroke-miterlimit="10"/>
</svg>
