<svg width="20" height="29" viewBox="0 0 20 29" fill="none" xmlns="http://www.w3.org/2000/svg">
<path d="M4.03879 1.35361L5.42862 0.880608C6.73191 0.437858 8.12433 1.15423 8.68233 2.55398L9.79316 5.34248C10.2762 6.55661 10.0076 7.98523 9.12925 8.87348L6.68154 11.3457C6.83266 12.8252 7.30025 14.2814 8.083 15.7141C8.82631 17.1003 9.82335 18.3136 11.0151 19.2822L13.9549 18.2372C15.0683 17.8426 16.2825 18.2977 16.9645 19.3661L18.5571 21.8549C19.3515 23.0979 19.2081 24.8111 18.2226 25.8644L17.1673 26.9932C16.1159 28.1166 14.6137 28.525 13.2251 28.063C9.94429 26.974 6.93083 23.7414 4.17958 18.3651C1.42446 12.9806 0.451831 8.41011 1.263 4.65911C1.604 3.08061 2.65929 1.82248 4.03879 1.35361Z" fill="#606060"/>
</svg>
