<svg id="Layer_1" data-name="Layer 1" xmlns="http://www.w3.org/2000/svg" viewBox="0 0 32 32"><defs><style>.cls-1{fill:#fff;}</style></defs><title>Artboard 1</title><path class="cls-1" d="M25.63,5.19H6.26a1.49,1.49,0,0,0-1.5,1.49V8.13a1.53,1.53,0,0,0,.43,1L22.48,26.56a1.59,1.59,0,0,0,1.09.44h0a1.49,1.49,0,0,0,1-2.53l-5.5-5.63a1.49,1.49,0,0,1,0-2.1l7.57-7.56a1.48,1.48,0,0,0,.43-1V6.68A1.49,1.49,0,0,0,25.63,5.19ZM16.12,15.86,8.61,7.92,23.45,8Z"/><path class="cls-1" d="M4.85,18v8.12a.9.9,0,0,0,.89.9l8.19.07a.9.9,0,0,0,.65-1.53l-8.2-8.2A.9.9,0,0,0,4.85,18Z"/></svg>