<svg id="Layer_1" data-name="Layer 1" xmlns="http://www.w3.org/2000/svg" viewBox="0 0 32 32.15"><defs><style>.cls-1{fill:#fff;}.cls-2{fill:#eb2227;}</style></defs><title>centered</title><rect class="cls-1" width="32" height="32.15"/><path d="M1.1,12.85v-.46a.47.47,0,0,1,.47-.46H7.62a.47.47,0,0,1,.47.46v.46a.47.47,0,0,1-.14.33L5.59,15.54a.48.48,0,0,0,0,.66L7.31,18a.47.47,0,0,1-.31.79H7a.43.43,0,0,1-.36-.14l-5.4-5.43A.47.47,0,0,1,1.1,12.85Z" transform="translate(0.04 0.11)"/><path d="M1.13,15.94v2.54a.27.27,0,0,0,.27.28l2.57,0a.28.28,0,0,0,.2-.48L1.6,15.74A.28.28,0,0,0,1.13,15.94Z" transform="translate(0.04 0.11)"/><polygon class="cls-1" points="2.34 12.9 6.98 12.93 4.69 15.38 2.34 12.9"/><path d="M10,14.43a2,2,0,0,1,1.79,1.09,2,2,0,0,1,.21.92v.07c0,.14-.09.21-.19.21H8.49a1.75,1.75,0,0,0,.87,1.12,1.83,1.83,0,0,0,.69.15,2,2,0,0,0,.84-.23h0c.12,0,.18.08.18.17V18c0,.19-.33.33-1,.41H10a2,2,0,0,1-1.71-1,2,2,0,0,1-.25-1,2,2,0,0,1,1-1.73A2.1,2.1,0,0,1,10,14.43Zm-1.56,1.9H11.6a1.71,1.71,0,0,0-.39-1,1.6,1.6,0,0,0-1.06-.5H10a1.5,1.5,0,0,0-1.29.76A2,2,0,0,0,8.46,16.33Z" transform="translate(0.04 0.11)"/><path d="M16.13,12.77h.05c.13,0,.19.08.19.15v3l0,.52a2.06,2.06,0,0,1-.47,1.2,2,2,0,0,1-1.49.71h-.12a2,2,0,0,1-1.5-.76,2.07,2.07,0,0,1-.43-1.24,2,2,0,0,1,.87-1.64,2,2,0,0,1,1.14-.36,2.49,2.49,0,0,1,1.6.75V13C16,12.83,16.07,12.77,16.13,12.77Zm-3.35,3.57v.08a1.58,1.58,0,0,0,1,1.49,1.78,1.78,0,0,0,.52.09h.09A1.59,1.59,0,0,0,15.91,17a2.39,2.39,0,0,0,.08-.5v-.09a1.59,1.59,0,0,0-1.07-1.5,2.37,2.37,0,0,0-.51-.08h-.06a1.59,1.59,0,0,0-1.47,1A1.63,1.63,0,0,0,12.78,16.34Z" transform="translate(0.04 0.11)"/><path d="M17.33,12.77h0c.12,0,.19.09.19.17v2.23a2.35,2.35,0,0,1,1.61-.78,2,2,0,0,1,2,2,2,2,0,0,1-1.07,1.77,1.9,1.9,0,0,1-.89.23h-.12a2,2,0,0,1-1.51-.76,2.17,2.17,0,0,1-.42-1.35V12.94C17.14,12.86,17.2,12.8,17.33,12.77Zm.21,3.57v.08a1.57,1.57,0,0,0,1.05,1.49,1.66,1.66,0,0,0,.51.09h.09A1.59,1.59,0,0,0,20.67,17a1.87,1.87,0,0,0,.08-.5v-.09a1.59,1.59,0,0,0-1.07-1.5,2.37,2.37,0,0,0-.51-.08h-.06a1.59,1.59,0,0,0-1.47,1A1.63,1.63,0,0,0,17.54,16.34Z" transform="translate(0.04 0.11)"/><path d="M21.85,12.79h0c.13,0,.19.08.19.15V18h.42c.08,0,.13.07.16.2h0c0,.14-.09.2-.19.2h-.6c-.1,0-.16-.07-.19-.21V13C21.71,12.87,21.76,12.79,21.85,12.79Z" transform="translate(0.04 0.11)"/><path d="M25.06,14.46a2,2,0,0,1,1.38.57,2,2,0,0,1,.59,1.4A2,2,0,0,1,26,18.17a1.94,1.94,0,0,1-.88.22H25a2,2,0,0,1-1.47-.74,2.09,2.09,0,0,1-.42-1.22,2,2,0,0,1,.85-1.61A2,2,0,0,1,25.06,14.46Zm-1.57,1.92v.07a1.51,1.51,0,0,0,.86,1.38A1.4,1.4,0,0,0,25,18h.09A1.52,1.52,0,0,0,26.51,17a1.58,1.58,0,0,0,.11-.59v-.07A1.48,1.48,0,0,0,26,15.14a1.57,1.57,0,0,0-2.38.77A1.71,1.71,0,0,0,23.49,16.38Z" transform="translate(0.04 0.11)"/><path d="M30.66,14.45a.23.23,0,0,0-.11,0c-.72.92-1.14,1.43-1.25,1.54h-.12c-.12-.18-.44-.58-.95-1.19-.17-.26-.3-.39-.38-.39s-.17.06-.19.19v.08L29,16.39l-.81,1a3.26,3.26,0,0,0-.55.69c0,.14.08.22.18.22h0l.09,0s.47-.56,1.31-1.62l.24-.28.85-1.07a4,4,0,0,0,.51-.65V14.6C30.85,14.53,30.79,14.48,30.66,14.45Z" transform="translate(0.04 0.11)"/><path class="cls-2" d="M29.75,16.59l-.26.26,1,1.17c.13.2.23.3.31.3h0c.13,0,.19-.08.19-.17v-.09S30.55,17.55,29.75,16.59Z" transform="translate(0.04 0.11)"/></svg>