<svg id="Layer_1" data-name="Layer 1" xmlns="http://www.w3.org/2000/svg" viewBox="0 0 102.44 100.98"><defs><style>.cls-1{fill:#010101;}</style></defs><path class="cls-1" d="M95.61.25H6.83A6.83,6.83,0,0,0,0,7.08v6.64a6.84,6.84,0,0,0,2,4.82L81.2,98.2a6.85,6.85,0,0,0,4.85,2h.35a6.82,6.82,0,0,0,4.53-11.59L65.72,62.82a6.84,6.84,0,0,1,.06-9.61l34.66-34.67a6.78,6.78,0,0,0,2-4.83V7.08A6.82,6.82,0,0,0,95.61.25ZM52.07,49.14,17.62,12.82l68,.46Z"/><path class="cls-1" d="M.39,59.05V96.29a4.1,4.1,0,0,0,4.07,4.1l37.57.34a4.11,4.11,0,0,0,2.94-7L7.4,56.14A4.11,4.11,0,0,0,.39,59.05Z"/></svg>