<?xml version="1.0" encoding="utf-8"?>
<!-- Generator: Adobe Illustrator 23.0.1, SVG Export Plug-In . SVG Version: 6.00 Build 0)  -->
<svg version="1.1" id="Layer_1" xmlns="http://www.w3.org/2000/svg" xmlns:xlink="http://www.w3.org/1999/xlink" x="0px" y="0px"
	 viewBox="0 0 82.8 21.4" style="enable-background:new 0 0 82.8 21.4;" xml:space="preserve">
<style type="text/css">
	.st0{fill:#FFFFFF;}
	.st1{fill:#FF0000;}
</style>
<title>size 40</title>
<path class="st0" d="M20.4,0H1.5C0.7,0,0,0.7,0,1.5v1.4c0,0.4,0.2,0.7,0.4,1l16.9,17c0.3,0.3,0.7,0.4,1,0.4h0.1c0.4,0,0.7-0.2,1-0.4
	c0.6-0.5,0.6-1.5,0-2.1L14,13.3c-0.6-0.6-0.6-1.5,0-2l7.4-7.4c0.3-0.3,0.4-0.6,0.4-1V1.5C21.8,0.6,21.2,0,20.4,0z M11.1,10.4
	L3.8,2.7l14.5,0.1L11.1,10.4z"/>
<path class="st0" d="M0.1,12.5v7.9c0,0.5,0.4,0.9,0.8,0.9c0,0,0,0,0,0l8,0.1c0.5,0,0.9-0.4,0.9-0.8c0-0.2-0.1-0.5-0.3-0.6l-8-8
	c-0.3-0.3-0.9-0.3-1.2,0C0.2,12.1,0.1,12.3,0.1,12.5z"/>
<path class="st0" d="M26.5,9.9c2,0,3.9,1.1,4.8,2.9c0.4,0.8,0.6,1.6,0.6,2.5v0.2c-0.1,0.4-0.2,0.6-0.5,0.6h-9c0.3,1.3,1.2,2.4,2.3,3
	c0.6,0.2,1.2,0.4,1.9,0.4c0.8,0,1.6-0.2,2.2-0.6H29c0.3,0.1,0.5,0.2,0.5,0.5v0.1c0,0.5-0.9,0.9-2.7,1.1h-0.3c-1.9,0-3.7-1-4.6-2.7
	c-0.5-0.8-0.7-1.7-0.7-2.6c0-1.9,1.1-3.7,2.8-4.7C24.8,10.1,25.7,9.9,26.5,9.9z M22.3,15h8.4c0-1-0.4-1.9-1-2.6
	C29,11.6,28,11.1,26.9,11h-0.5c-1.4,0-2.8,0.8-3.5,2.1C22.6,13.7,22.4,14.3,22.3,15z"/>
<path class="st0" d="M43,5.4h0.1c0.3,0.1,0.5,0.2,0.5,0.4V14v1.4c-0.1,1.2-0.5,2.3-1.3,3.2c-1,1.2-2.5,1.9-4,1.9H38
	c-1.6-0.1-3-0.8-4-2c-0.7-1-1.1-2.1-1.1-3.4c0-1.8,0.9-3.4,2.3-4.4c0.9-0.6,2-1,3.1-1c1.6,0.1,3.2,0.8,4.3,2V6.5V5.9
	C42.6,5.6,42.8,5.4,43,5.4z M34,15v0.2c0,1.8,1.1,3.4,2.8,4c0.4,0.1,0.9,0.2,1.4,0.2h0.3c1.8,0,3.4-1.1,4-2.8
	c0.1-0.4,0.2-0.9,0.2-1.3v-0.2c0-1.8-1.2-3.4-2.9-4c-0.5-0.1-1-0.2-1.5-0.2h-0.2c-1.8,0-3.4,1.1-4,2.8C34,14.1,33.9,14.6,34,15
	L34,15z"/>
<path class="st0" d="M46.2,5.4L46.2,5.4c0.3,0.1,0.5,0.2,0.5,0.4v6c1.1-1.2,2.7-2,4.3-2.1c3,0,5.3,2.4,5.4,5.4c0,2-1.1,3.8-2.9,4.8
	c-0.7,0.4-1.6,0.6-2.4,0.6h-0.3c-1.6-0.1-3-0.8-4-2c-0.8-1-1.2-2.3-1.1-3.6v-9C45.7,5.7,45.8,5.5,46.2,5.4z M46.7,15v0.2
	c0,1.8,1.1,3.4,2.8,4c0.4,0.1,0.9,0.2,1.4,0.2h0.3c1.8,0,3.4-1.1,4-2.8c0.1-0.4,0.2-0.9,0.2-1.3v-0.2c0-1.8-1.2-3.4-2.9-4
	c-0.4-0.1-0.9-0.2-1.4-0.2H51c-1.8,0-3.4,1.1-4,2.8C46.8,14.1,46.7,14.6,46.7,15L46.7,15z"/>
<path class="st0" d="M58.3,5.5h0.1c0.3,0.1,0.5,0.2,0.5,0.4v13.6h1.2c0.2,0,0.3,0.2,0.4,0.5l0,0c-0.1,0.4-0.2,0.5-0.5,0.5h-1.6
	c-0.3,0-0.4-0.2-0.5-0.6V6.1C58,5.7,58.1,5.5,58.3,5.5z"/>
<path class="st0" d="M67,10c2.9,0,5.3,2.4,5.3,5.3c0,2-1.1,3.8-2.8,4.7c-0.7,0.4-1.5,0.6-2.4,0.6h-0.3c-1.6-0.1-3-0.8-4-2
	c-0.7-0.9-1.1-2.1-1.1-3.3c0-1.7,0.9-3.3,2.3-4.3C64.8,10.3,65.9,10,67,10z M62.8,15.1v0.2c0,1.6,0.9,3,2.3,3.7
	c0.6,0.3,1.2,0.4,1.8,0.4h0.2c1.7,0,3.2-1,3.8-2.6c0.2-0.5,0.3-1,0.3-1.6v-0.2c0-1.4-0.7-2.6-1.9-3.3c-1.9-1.3-4.5-0.8-5.9,1.1
	c-0.2,0.3-0.4,0.6-0.5,1C62.8,14.3,62.7,14.7,62.8,15.1z"/>
<path class="st0" d="M82,10c-0.1,0-0.2,0-0.3,0.1c-2,2.5-3.1,3.9-3.4,4.1h-0.3c-0.3-0.5-1.2-1.6-2.6-3.2c-0.5-0.7-0.8-1-1-1
	S74,10.2,74,10.5v0.2l3.6,4.5L75.4,18c-0.6,0.6-1.1,1.2-1.5,1.9c0.1,0.4,0.2,0.6,0.5,0.6l0,0c0.1,0,0.2,0,0.3-0.1
	c0.1-0.1,1.3-1.5,3.5-4.3l0.6-0.8l2.3-2.9c0.5-0.5,1-1.1,1.4-1.8v-0.2C82.5,10.2,82.4,10.1,82,10z"/>
<path class="st1" d="M79.6,15.7l-0.7,0.7l2.6,3.1c0.3,0.5,0.6,0.8,0.8,0.8l0,0c0.3,0,0.5-0.2,0.5-0.4v-0.2
	C82.8,19.6,81.7,18.3,79.6,15.7z"/>
</svg>
