<svg id="Layer_1" data-name="Layer 1" xmlns="http://www.w3.org/2000/svg" viewBox="0 0 82.78 21.42"><defs><style>.cls-1{fill:#fff;}.cls-2{fill:#eb2227;}</style></defs><title>size 40</title><path d="M35.69,11.79V10.37a1.47,1.47,0,0,1,1.46-1.46H56.07a1.46,1.46,0,0,1,1.46,1.46v1.41a1.42,1.42,0,0,1-.43,1L49.72,20.2a1.46,1.46,0,0,0,0,2.05l5.38,5.5a1.46,1.46,0,0,1-1,2.47h0A1.45,1.45,0,0,1,53,29.79l-16.88-17A1.46,1.46,0,0,1,35.69,11.79Z" transform="translate(-35.69 -8.91)"/><path d="M35.78,21.45v7.94a.86.86,0,0,0,.86.87l8,.07a.87.87,0,0,0,.63-1.49l-8-8A.87.87,0,0,0,35.78,21.45Z" transform="translate(-35.69 -8.91)"/><polygon class="cls-1" points="3.75 2.68 18.25 2.78 11.1 10.42 3.75 2.68"/><path d="M62.23,18.81A5.3,5.3,0,0,1,67,21.74a5.37,5.37,0,0,1,.58,2.49v.18c-.07.38-.23.57-.5.57h-9a4.79,4.79,0,0,0,2.33,3,5.29,5.29,0,0,0,1.87.38,5,5,0,0,0,2.24-.61h.15c.32.06.48.22.48.47v.12c0,.51-.89.88-2.69,1.11h-.26a5.25,5.25,0,0,1-4.6-2.69,5.39,5.39,0,0,1-.69-2.64,5.28,5.28,0,0,1,2.77-4.66A5.73,5.73,0,0,1,62.23,18.81ZM58,23.93h8.44a4.56,4.56,0,0,0-1-2.63,4.21,4.21,0,0,0-2.86-1.36h-.45A4,4,0,0,0,58.65,22,5.1,5.1,0,0,0,58,23.93Z" transform="translate(-35.69 -8.91)"/><path d="M78.66,14.36h.13c.33.07.5.2.5.4v8.18l0,1.4a5.42,5.42,0,0,1-1.26,3.21,5.36,5.36,0,0,1-4,1.92h-.33a5.47,5.47,0,0,1-4-2,5.73,5.73,0,0,1-1.14-3.35,5.37,5.37,0,0,1,2.32-4.4,5.52,5.52,0,0,1,3.07-1,6.65,6.65,0,0,1,4.31,2V15.45l0-.62C78.33,14.52,78.48,14.36,78.66,14.36Zm-9,9.6v.21a4.25,4.25,0,0,0,2.82,4,4.61,4.61,0,0,0,1.37.23h.26a4.28,4.28,0,0,0,4-2.82,6.05,6.05,0,0,0,.21-1.33V24a4.28,4.28,0,0,0-2.87-4A6.26,6.26,0,0,0,74,19.77h-.16a4.25,4.25,0,0,0-4,2.76A4.52,4.52,0,0,0,69.63,24Z" transform="translate(-35.69 -8.91)"/><path d="M81.87,14.36h0c.34.08.51.22.51.44v6a6.37,6.37,0,0,1,4.32-2.11,5.45,5.45,0,0,1,5.38,5.38,5.35,5.35,0,0,1-2.87,4.77,5.25,5.25,0,0,1-2.39.62h-.32a5.49,5.49,0,0,1-4-2,5.86,5.86,0,0,1-1.14-3.63v-9C81.36,14.58,81.53,14.44,81.87,14.36Zm.56,9.6v.21a4.25,4.25,0,0,0,2.82,4,4.61,4.61,0,0,0,1.37.23h.25a4.26,4.26,0,0,0,4-2.82,5.62,5.62,0,0,0,.22-1.33V24a4.3,4.3,0,0,0-2.87-4,6.34,6.34,0,0,0-1.37-.21h-.16a4.25,4.25,0,0,0-4,2.76A4.52,4.52,0,0,0,82.43,24Z" transform="translate(-35.69 -8.91)"/><path d="M94,14.42h.13c.34.06.5.19.5.38V28.41H95.8c.21,0,.35.19.43.55v0c-.06.36-.23.53-.52.53H94.12c-.27,0-.44-.19-.52-.56V15.05C93.65,14.63,93.79,14.42,94,14.42Z" transform="translate(-35.69 -8.91)"/><path d="M102.65,18.89a5.34,5.34,0,0,1,5.29,5.29,5.25,5.25,0,0,1-2.82,4.68,5.17,5.17,0,0,1-2.35.61h-.33a5.36,5.36,0,0,1-4-2,5.57,5.57,0,0,1-1.12-3.28,5.28,5.28,0,0,1,2.28-4.33A5.39,5.39,0,0,1,102.65,18.89Zm-4.21,5.17v.2a4.05,4.05,0,0,0,2.3,3.69,3.73,3.73,0,0,0,1.79.44h.24a4.09,4.09,0,0,0,3.78-2.56,4.3,4.3,0,0,0,.31-1.57v-.2A4,4,0,0,0,105,20.72a4.22,4.22,0,0,0-6.38,2.06A4.25,4.25,0,0,0,98.44,24.06Z" transform="translate(-35.69 -8.91)"/><path d="M117.72,18.88a.54.54,0,0,0-.3.1c-2,2.46-3.08,3.85-3.38,4.14h-.3c-.34-.49-1.2-1.56-2.56-3.21-.47-.69-.81-1-1-1s-.45.17-.52.52l0,.21,3.61,4.49-2.19,2.79a9.26,9.26,0,0,0-1.47,1.85c.06.39.22.59.49.59h0a.49.49,0,0,0,.25-.08c.09-.06,1.26-1.5,3.53-4.34l.64-.76,2.28-2.87a10.23,10.23,0,0,0,1.37-1.76v-.24C118.22,19.09,118.06,19,117.72,18.88Z" transform="translate(-35.69 -8.91)"/><path class="cls-2" d="M115.27,24.63l-.71.7,2.56,3.14c.34.54.62.8.83.8h0c.34-.05.51-.2.51-.44v-.24C118.47,28.52,117.4,27.21,115.27,24.63Z" transform="translate(-35.69 -8.91)"/></svg>