<svg width="31" height="27" viewBox="0 0 31 27" fill="none" xmlns="http://www.w3.org/2000/svg">
<path d="M9.73787 26.0624C21.4365 26.0624 27.8361 16.3691 27.8361 7.97775C27.8361 7.7065 27.8361 7.43138 27.8244 7.16013C29.0704 6.25819 30.1457 5.14155 31 3.8625C29.8362 4.37565 28.6028 4.71385 27.3401 4.86613C28.6702 4.07105 29.6665 2.82007 30.1436 1.34569C28.8939 2.08606 27.5261 2.60579 26.1001 2.88213C25.1414 1.86111 23.8727 1.18472 22.4907 0.957721C21.1086 0.730723 19.6903 0.965788 18.4553 1.62651C17.2204 2.28722 16.2378 3.33672 15.6597 4.61243C15.0817 5.88814 14.9404 7.31887 15.2578 8.683C12.7289 8.5562 10.2548 7.89922 7.99615 6.75469C5.73746 5.61016 3.74458 4.00364 2.14675 2.03932C1.3356 3.44029 1.08805 5.09747 1.45438 6.67433C1.8207 8.2512 2.77344 9.62953 4.11912 10.5294C3.11073 10.4952 2.12451 10.2244 1.24 9.73894V9.82613C1.24174 11.2937 1.75016 12.7158 2.67932 13.8518C3.60848 14.9878 4.90139 15.7682 6.3395 16.061C5.79363 16.2114 5.22976 16.2863 4.66356 16.2838C4.26441 16.285 3.86605 16.248 3.47394 16.1734C3.8804 17.4367 4.67184 18.5413 5.73742 19.3324C6.80299 20.1235 8.08932 20.5615 9.41625 20.5851C7.16208 22.3556 4.37759 23.3158 1.51125 23.3111C1.00618 23.3133 0.50147 23.2841 0 23.2239C2.90918 25.0786 6.28776 26.0634 9.73787 26.0624Z" fill="white"/>
</svg>
