<svg width="29" height="25" viewBox="0 0 29 25" fill="none" xmlns="http://www.w3.org/2000/svg">
<path d="M9.10962 24.1873C20.0535 24.1873 26.0402 15.1194 26.0402 7.26942C26.0402 7.01567 26.0402 6.75829 26.0293 6.50454C27.1949 5.6608 28.2008 4.61619 29 3.41967C27.9113 3.89971 26.7575 4.21609 25.5762 4.35854C26.8205 3.61476 27.7525 2.44448 28.1989 1.06523C27.0298 1.75783 25.7502 2.24403 24.4162 2.50254C23.5193 1.5474 22.3325 0.914642 21.0397 0.702289C19.7468 0.489937 18.4199 0.709837 17.2647 1.32793C16.1094 1.94602 15.1902 2.92781 14.6494 4.12121C14.1087 5.31462 13.9765 6.65304 14.2734 7.92917C11.9077 7.81054 9.59323 7.19595 7.48027 6.12526C5.3673 5.05457 3.50299 3.5517 2.00825 1.7141C1.24943 3.02469 1.01785 4.57496 1.36055 6.05009C1.70324 7.52522 2.59451 8.81463 3.85337 9.65648C2.91004 9.62443 1.98744 9.37112 1.16 8.91698V8.99854C1.16163 10.3715 1.63724 11.7017 2.50646 12.7645C3.37567 13.8272 4.58517 14.5572 5.9305 14.8312C5.41985 14.9718 4.89235 15.042 4.36269 15.0396C3.98928 15.0407 3.61663 15.0061 3.24981 14.9363C3.63005 16.1181 4.37043 17.1515 5.36726 17.8915C6.36409 18.6316 7.56743 19.0413 8.80875 19.0634C6.70001 20.7196 4.09516 21.6179 1.41375 21.6135C0.941269 21.6155 0.469117 21.5883 0 21.532C2.7215 23.267 5.8821 24.1883 9.10962 24.1873Z" fill="black" fill-opacity="0.33"/>
</svg>
