<svg xmlns="http://www.w3.org/2000/svg" xmlns:xlink="http://www.w3.org/1999/xlink" viewBox="0 0 32 32"><defs><style>.cls-1{isolation:isolate;}.cls-2,.cls-3{fill:#fff;}.cls-3,.cls-6{stroke:#000;stroke-miterlimit:10;}.cls-3{stroke-width:0.12px;}.cls-4,.cls-5,.cls-7{opacity:0.2;mix-blend-mode:lighten;}.cls-4{fill:url(#Áåçûìÿííûé_ãðàäèåíò_224);}.cls-5{fill:url(#Áåçûìÿííûé_ãðàäèåíò_224-2);}.cls-6{fill:none;stroke-width:0.09px;}.cls-7{fill:url(#Áåçûìÿííûé_ãðàäèåíò_224-3);}</style><radialGradient id="Áåçûìÿííûé_ãðàäèåíò_224" cx="8.23" cy="17.95" r="10.12" gradientUnits="userSpaceOnUse"><stop offset="0" stop-color="#4b95fa"/><stop offset="0.1" stop-color="#457ad8"/><stop offset="0.25" stop-color="#3e55ab"/><stop offset="0.4" stop-color="#383786"/><stop offset="0.56" stop-color="#332069"/><stop offset="0.71" stop-color="#300f55"/><stop offset="0.86" stop-color="#2e0548"/><stop offset="1" stop-color="#2d0244"/></radialGradient><radialGradient id="Áåçûìÿííûé_ãðàäèåíò_224-2" cx="8.45" cy="25.4" r="7.29" xlink:href="#Áåçûìÿííûé_ãðàäèåíò_224"/><radialGradient id="Áåçûìÿííûé_ãðàäèåíò_224-3" cx="21.7" cy="12.04" r="10.43" xlink:href="#Áåçûìÿííûé_ãðàäèåíò_224"/></defs><title>Artboard 1</title><g class="cls-1"><g id="Layer_1" data-name="Layer 1"><path class="cls-2" d="M31.89,0H0V32H31.89Z"/><rect class="cls-3" x="7.79" y="2.11" width="16.07" height="28.38" rx="2"/><rect class="cls-3" x="8.11" y="2.43" width="15.42" height="27.74" rx="1.79"/><path class="cls-4" d="M11.64,12H8.11v5.7h3.53a.63.63,0,0,0,.63-.63V12.59A.63.63,0,0,0,11.64,12Z"/><path class="cls-3" d="M23.54,22.82V4.23a1.81,1.81,0,0,0-1.8-1.8H9.91a1.81,1.81,0,0,0-1.8,1.8v.53A80.23,80.23,0,0,0,23.54,22.82Z"/><path class="cls-5" d="M11.69,20.63H8.11V25h3.58a.48.48,0,0,0,.48-.48V21.11A.48.48,0,0,0,11.69,20.63Z"/><rect class="cls-3" x="2.25" y="10.61" width="8.58" height="5.7" rx="0.63"/><path class="cls-3" d="M10.2,10.61H2.88a.63.63,0,0,0-.63.63v.61h8.58v-.61A.63.63,0,0,0,10.2,10.61Z"/><path class="cls-3" d="M5,11.35H3.28a.1.1,0,0,1-.1-.1h0a.11.11,0,0,1,.1-.1H5a.11.11,0,0,1,.1.1h0A.1.1,0,0,1,5,11.35Z"/><path class="cls-3" d="M6.33,11.35H5.64a.1.1,0,0,1-.11-.1h0a.11.11,0,0,1,.11-.1h.69a.1.1,0,0,1,.1.1h0A.09.09,0,0,1,6.33,11.35Z"/><path class="cls-3" d="M7.69,11.35H7a.1.1,0,0,1-.1-.1h0a.11.11,0,0,1,.1-.1h.7a.11.11,0,0,1,.1.1h0A.1.1,0,0,1,7.69,11.35Z"/><path class="cls-6" d="M17,3.27H14.68a.12.12,0,0,1-.13-.12h0A.13.13,0,0,1,14.68,3H17a.12.12,0,0,1,.12.13h0A.12.12,0,0,1,17,3.27Z"/><path class="cls-7" d="M23.54,7.93H16.71a.47.47,0,0,0-.48.48v3.42a.48.48,0,0,0,.48.49h6.83Z"/><path class="cls-3" d="M28,8.21a.5.5,0,1,1-.5-.5A.49.49,0,0,1,28,8.21Z"/><rect class="cls-3" x="14.51" y="5.2" width="12.97" height="4.39" rx="0.48"/><path class="cls-3" d="M4.19,22.67a.54.54,0,0,1-.53.54.54.54,0,1,1,.53-.54Z"/><rect class="cls-3" x="3.91" y="19.85" width="12.97" height="4.39" rx="0.48" transform="translate(20.78 44.09) rotate(180)"/><path class="cls-3" d="M27.12,27.37l-.33-.14,0-.27.3-.2a.09.09,0,0,0,0-.11L27,26.44a.1.1,0,0,0-.1-.06h-.36a1.71,1.71,0,0,0-.13-.23l.19-.31a.09.09,0,0,0,0-.11l-.15-.16a.09.09,0,0,0-.11,0l-.32.16-.22-.16.05-.35a.09.09,0,0,0-.06-.1l-.2-.09a.09.09,0,0,0-.11,0l-.23.28L25,25.25l-.09-.34a.11.11,0,0,0-.09-.07H24.6a.09.09,0,0,0-.09.07l-.1.34-.27.06L23.91,25a.09.09,0,0,0-.11,0l-.2.09a.09.09,0,0,0-.06.1l.06.35a1.88,1.88,0,0,0-.23.16l-.32-.16a.09.09,0,0,0-.11,0l-.15.16a.09.09,0,0,0,0,.11l.19.31a1.71,1.71,0,0,0-.13.23h-.36a.09.09,0,0,0-.09.06l-.07.21a.08.08,0,0,0,0,.11l.29.2a2.45,2.45,0,0,0,0,.27l-.34.14a.09.09,0,0,0-.06.09l0,.22a.08.08,0,0,0,.07.08l.36.07a2.58,2.58,0,0,0,.08.26l-.25.25a.1.1,0,0,0,0,.12l.11.19a.1.1,0,0,0,.1,0l.35-.09.18.21-.12.33a.09.09,0,0,0,0,.11l.18.13a.09.09,0,0,0,.11,0l.29-.22.25.11,0,.36a.08.08,0,0,0,.07.08l.22.05a.09.09,0,0,0,.1-.05l.17-.32h.27l.17.32a.09.09,0,0,0,.1.05l.22-.05a.08.08,0,0,0,.07-.08l0-.36.25-.11.28.22a.09.09,0,0,0,.11,0l.18-.13a.09.09,0,0,0,0-.11l-.12-.33.18-.21.35.09a.12.12,0,0,0,.11,0l.1-.19a.09.09,0,0,0,0-.12l-.25-.25a2.58,2.58,0,0,0,.08-.26l.36-.07s.07,0,.08-.08l0-.22A.09.09,0,0,0,27.12,27.37Zm-2.41,1.19a1.25,1.25,0,1,1,0-2.49,1.25,1.25,0,0,1,0,2.49Z"/><path class="cls-3" d="M28.43,7a.29.29,0,1,1-.28-.28A.29.29,0,0,1,28.43,7Z"/><path class="cls-3" d="M29.55,6.49a.2.2,0,0,1-.21.2.2.2,0,0,1,0-.4A.2.2,0,0,1,29.55,6.49Z"/><path class="cls-3" d="M30.35,8.28a.15.15,0,0,1-.15.14.14.14,0,1,1,0-.28A.15.15,0,0,1,30.35,8.28Z"/><circle class="cls-3" cx="31.66" cy="7.64" r="0.08"/><circle class="cls-3" cx="3.16" cy="21" r="0.25"/><path class="cls-3" d="M2.69,22a.14.14,0,1,1-.28,0,.14.14,0,0,1,.28,0Z"/><path class="cls-3" d="M2,21.39a.09.09,0,1,1-.09-.09A.09.09,0,0,1,2,21.39Z"/><path class="cls-3" d="M1.71,22.79a.06.06,0,0,1-.05.06.06.06,0,0,1-.06-.06.06.06,0,0,1,.06-.05A0,0,0,0,1,1.71,22.79Z"/><path class="cls-3" d="M.51,21.79a.06.06,0,0,1-.06.05,0,0,0,0,1,0-.05.06.06,0,0,1,0-.06A.06.06,0,0,1,.51,21.79Z"/><rect class="cls-3" x="14.8" y="5.47" width="3.84" height="3.84" rx="0.21"/><rect class="cls-3" x="12.77" y="20.13" width="3.84" height="3.84" rx="0.21"/><path class="cls-3" d="M9.44,21.15H7.83A.11.11,0,0,1,7.72,21h0a.11.11,0,0,1,.11-.1H9.44a.1.1,0,0,1,.1.1h0A.1.1,0,0,1,9.44,21.15Z"/><path class="cls-3" d="M10.68,21.15h-.62A.1.1,0,0,1,10,21h0a.1.1,0,0,1,.1-.1h.62a.11.11,0,0,1,.1.1h0A.11.11,0,0,1,10.68,21.15Z"/><path class="cls-3" d="M11.87,21.15h-.62a.11.11,0,0,1-.1-.11h0a.11.11,0,0,1,.1-.1h.62a.11.11,0,0,1,.1.1h0A.11.11,0,0,1,11.87,21.15Z"/><path class="cls-3" d="M11.87,21.57H10.44a.11.11,0,0,1-.1-.11h0a.11.11,0,0,1,.1-.1h1.43a.11.11,0,0,1,.1.1h0A.11.11,0,0,1,11.87,21.57Z"/><path class="cls-3" d="M9.81,21.57H6.58a.11.11,0,0,1-.11-.11h0a.11.11,0,0,1,.11-.1H9.81a.11.11,0,0,1,.1.1h0A.11.11,0,0,1,9.81,21.57Z"/><path class="cls-3" d="M20.26,6.15h-.61a.1.1,0,0,1-.1-.11h0a.1.1,0,0,1,.1-.1h.61a.11.11,0,0,1,.11.1h0A.11.11,0,0,1,20.26,6.15Z"/><path class="cls-3" d="M24.44,6.15H20.87A.11.11,0,0,1,20.76,6h0a.11.11,0,0,1,.11-.1h3.57a.1.1,0,0,1,.1.1h0A.1.1,0,0,1,24.44,6.15Z"/><path class="cls-3" d="M20.66,6.59h-1a.09.09,0,0,1-.1-.1h0a.09.09,0,0,1,.1-.1h1a.09.09,0,0,1,.1.1h0A.09.09,0,0,1,20.66,6.59Z"/><path class="cls-3" d="M21.65,6.59h-.43a.09.09,0,0,1-.1-.1h0a.09.09,0,0,1,.1-.1h.43a.1.1,0,0,1,.1.1h0A.1.1,0,0,1,21.65,6.59Z"/><path class="cls-3" d="M25,6.59H22.18a.09.09,0,0,1-.1-.1h0a.09.09,0,0,1,.1-.1H25a.1.1,0,0,1,.1.1h0A.1.1,0,0,1,25,6.59Z"/><circle class="cls-3" cx="21.1" cy="16.23" r="0.19"/><path class="cls-3" d="M16.36,12.18a.33.33,0,1,1-.33-.33A.33.33,0,0,1,16.36,12.18Z"/><path class="cls-3" d="M15.89,12.51a.19.19,0,1,1-.19-.19A.19.19,0,0,1,15.89,12.51Z"/><path class="cls-3" d="M16.64,11.47a.18.18,0,0,1-.18.19.18.18,0,0,1-.19-.19.18.18,0,0,1,.19-.18A.18.18,0,0,1,16.64,11.47Z"/><path class="cls-3" d="M15.14,11.76a.16.16,0,0,1-.15.16.15.15,0,0,1-.15-.16.15.15,0,0,1,.15-.15A.15.15,0,0,1,15.14,11.76Z"/><path class="cls-3" d="M15.66,11a.11.11,0,1,1-.22,0,.11.11,0,0,1,.22,0Z"/><path class="cls-3" d="M14.79,10.66a.07.07,0,0,1-.07.07.07.07,0,0,1,0-.14A.07.07,0,0,1,14.79,10.66Z"/><path class="cls-3" d="M15.35,10.12a.08.08,0,0,1-.09,0,.08.08,0,0,1,0-.1.07.07,0,1,1,.13.07Z"/><circle class="cls-3" cx="21.92" cy="16.91" r="0.16"/><path class="cls-3" d="M22.26,15.64a.12.12,0,0,1-.12.12.11.11,0,0,1-.11-.12.11.11,0,0,1,.11-.11A.12.12,0,0,1,22.26,15.64Z"/><path class="cls-3" d="M21.55,15.11a.06.06,0,0,1-.06.06.06.06,0,0,1,0-.06,0,0,0,0,1,0,0A.06.06,0,0,1,21.55,15.11Z"/><path class="cls-3" d="M22.26,14.48a0,0,0,0,1,0,0,0,0,0,0,1,0-.06A0,0,0,0,1,22.26,14.48Z"/><circle class="cls-3" cx="21.5" cy="13.79" r="0.03"/><path class="cls-3" d="M21.4,17.14a.47.47,0,1,1-.47-.47A.47.47,0,0,1,21.4,17.14Z"/></g></g></svg>