<svg xmlns="http://www.w3.org/2000/svg" viewBox="0 0 503.08 434.29"><defs><style>.cls-1,.cls-3,.cls-4,.cls-8,.cls-9{fill:none;}.cls-1,.cls-10,.cls-2,.cls-4,.cls-5,.cls-7{stroke:#000;}.cls-1,.cls-10,.cls-2,.cls-3,.cls-4,.cls-5,.cls-7,.cls-8{stroke-miterlimit:10;}.cls-1,.cls-8{stroke-width:2px;}.cls-3{stroke:#fffdfd;}.cls-5,.cls-6{fill:#fff;}.cls-7{stroke-width:0.75px;}.cls-8{stroke:#f9f9f9;}.cls-10{stroke-width:0.5px;}</style></defs><title>to animation 2</title><g id="Layer_1" data-name="Layer 1"><polyline class="cls-1" points="187.31 192.8 187.31 157.24 211.61 157.24"/><polyline class="cls-1" points="282.27 162.57 272.5 169.24 281.38 176.35"/><line class="cls-1" x1="297.83" y1="163.02" x2="290.72" y2="175.46"/><circle class="cls-2" cx="311.83" cy="269.46" r="35.78"/><polyline class="cls-1" points="385.83 114.13 385.83 268.8 347.59 268.8"/><polyline class="cls-1" points="237.38 247.91 237.38 268.8 276.06 268.8"/><polyline class="cls-1" points="353.08 35.47 386.27 35.47 386.27 60.36"/><polyline class="cls-1" points="236.05 112.8 236.05 35.47 335.42 35.47"/><polyline class="cls-1" points="163.01 134.72 309.83 134.72 309.83 113.39 161.83 113.39 161.83 363.46 311.16 363.46 311.16 333.24 161.24 333.24"/><line class="cls-1" x1="237.09" y1="194.46" x2="323.61" y2="194.46"/><line class="cls-1" x1="299.68" y1="177.04" x2="352.42" y2="177.04"/><line class="cls-1" x1="237.46" y1="211.28" x2="323.98" y2="211.28"/><circle cx="237.68" cy="244.94" r="7.7"/><circle cx="238.35" cy="348.58" r="10.22"/><rect class="cls-2" x="361.53" y="67.17" width="48.59" height="36.74"/><polyline class="cls-3" points="381.91 77.27 372.09 83.88 380.93 91.05"/><line class="cls-4" x1="167.76" y1="119.02" x2="178.42" y2="129.69"/><line class="cls-4" x1="178.05" y1="119.02" x2="167.39" y2="129.69"/><polygon class="cls-3" points="310.83 246.28 325.94 270.28 311.42 293.69 297.79 269.69 310.83 246.28"/><line class="cls-3" x1="310.83" y1="246.28" x2="311.42" y2="293.69"/><path class="cls-3" d="M628.52,404.89s13.81,13.41,28.15.59" transform="translate(-330.73 -135.2)"/><line class="cls-5" x1="311.16" y1="333.24" x2="310.87" y2="305.39"/><polyline class="cls-1" points="19.83 183.02 19.83 224.8 75.83 224.8"/><rect class="cls-6" x="154.16" y="222.8" width="2.22" height="5.33"/></g><g id="arrows"><polyline class="cls-3" points="392.46 77.46 402.28 84.06 393.44 91.23"/></g><g id="small_circle" data-name="small circle"><ellipse class="cls-4" cx="36.13" cy="326.06" rx="4.22" ry="0.95"/><path class="cls-4" d="M371.08,473c0,.52-1.89.95-4.22.95s-4.22-.43-4.22-.95V461.26" transform="translate(-330.73 -135.2)"/><line class="cls-4" x1="40.35" y1="326.06" x2="40.35" y2="337.86"/><path class="cls-7" d="M366.86,473.9V462.21s-4.11-.09-4.18-.69,0,11.43,0,11.43S362.68,473.8,366.86,473.9Z" transform="translate(-330.73 -135.2)"/></g><g id="media"><rect class="cls-2" x="336.61" y="330.02" width="17.11" height="15.33"/><circle class="cls-6" cx="344.57" cy="337.54" r="3.26"/><polygon class="cls-4" points="335.61 385.24 335.61 329.24 424.94 329.24 424.94 386.13 335.61 385.24"/><line class="cls-4" x1="335.61" y1="346.35" x2="424.94" y2="346.35"/><rect class="cls-2" x="384.94" y="376.5" width="26.37" height="18.5"/><polygon class="cls-6" points="392.76 380.06 392.55 390.6 403.19 385.87 392.76 380.06"/></g><g id="binary"><polygon points="75.9 206.91 75.9 243.65 189.68 243.65 189.68 206.31 75.9 206.91"/></g><g id="binary_2" data-name="binary 2"><line class="cls-8" x1="94.2" y1="218.06" x2="94.2" y2="231.91"/><line class="cls-8" x1="123.53" y1="217.61" x2="123.53" y2="231.46"/><line class="cls-8" x1="167.27" y1="217.46" x2="167.27" y2="231.31"/><line class="cls-8" x1="179.53" y1="217.17" x2="179.53" y2="231.02"/><line class="cls-8" x1="131.09" y1="217.83" x2="131.09" y2="231.69"/><circle class="cls-8" cx="108.89" cy="225.07" r="5.94"/><circle class="cls-8" cx="148.11" cy="225.07" r="5.94"/></g><g id="small_dots" data-name="small dots"><circle cx="186.15" cy="302.24" r="2.38"/><circle cx="194.63" cy="302.38" r="2.38"/><circle cx="203.06" cy="302.33" r="2.38"/><circle cx="186.42" cy="310.19" r="2.38"/><circle cx="194.9" cy="310.33" r="2.38"/><circle cx="203.34" cy="310.28" r="2.38"/><circle cx="186.33" cy="317.84" r="2.38"/><circle cx="194.81" cy="317.98" r="2.38"/><circle cx="203.24" cy="317.93" r="2.38"/></g><g id="top_circle" data-name="top circle"><ellipse class="cls-4" cx="344.34" cy="3.93" rx="8.29" ry="3.43"/><path class="cls-4" d="M666.78,181.29c0,1.89,3.71,3.42,8.28,3.42s8.29-1.53,8.29-3.42V139.13" transform="translate(-330.73 -135.2)"/><line class="cls-4" x1="336.05" y1="3.93" x2="336.05" y2="46.51"/><path class="cls-7" d="M675.06,184.71V142.56s8.08-.35,8.22-2.5.07,41.23.07,41.23S683.28,184.36,675.06,184.71Z" transform="translate(-330.73 -135.2)"/></g><g id="box"><polygon class="cls-4" points="0.5 133.35 0.5 155.97 19.13 167.13 40.39 156.26 40.39 133.06 20.01 121.02 0.5 133.35"/><polyline class="cls-4" points="0.5 133.35 19.61 142.13 40.39 133.06"/><polygon class="cls-2" points="19.13 167.13 19.61 142.13 40.39 133.06 40.39 156.26 19.13 167.13"/></g><g id="person_2_left" data-name="person 2 left"><path d="M396.11,249s15.11,7.11,29.33,10.67c0,0,18.37,7.7,27.26,3.55l1.78,16h-61V247.81Z" transform="translate(-330.73 -135.2)"/><path class="cls-4" d="M408.85,254.37s5.34-3.56,4.74-19.56a64.85,64.85,0,0,1-4.51-5.17c-5.16-6.54-12.17-17.83-6.15-25,0,0,22.51-15.4,22.51-20.74,0,0,10.67,7.71,10.67,8.89,0,0,3,11.85,0,16,0,0-21.33,3.56-21.33,13v3s-5.78,4.15,1.78,4.82c0,0,8.22,16.66,17.11,16.88,0,0,6.44,4,9.11-4.88,0,0,.22-11.56-.67-14.89,0,0,8.89-10.89-4-15.56l-.89-2.55" transform="translate(-330.73 -135.2)"/><line class="cls-4" x1="105.05" y1="112.69" x2="105.27" y2="130.57"/><polygon class="cls-9" points="62.42 147.18 62.42 57.39 139.38 57.39 139.38 148.13 62.42 147.18"/><path class="cls-2" d="M414.78,224.74s-4.15-11.7,21.33-16c0,0,2.67-5.63,0-16,0,0-9.18-8.44-10.67-8.89A81,81,0,0,1,403.52,204s-8,8.15,3,22.07l2.6,3.57S407.07,224,414.78,224.74Z" transform="translate(-330.73 -135.2)"/><path class="cls-2" d="M428.41,227.56s-5.11-5.78-3.78-8.89c0,0,6-6.23,17.78-6.67,0,0,6.22,3.78,4.22,10.67C446.63,222.67,434.19,230,428.41,227.56Z" transform="translate(-330.73 -135.2)"/><rect class="cls-4" x="62.5" y="65.66" width="59.78" height="78.34"/></g><g id="person_left" data-name="person left"><path class="cls-4" d="M479.67,546.22l4.74,7.71s7.4-.89,11.85-3,1.48-3.85-2.07-3.85-7.71.59-8.89-4.44S479.67,546.22,479.67,546.22Z" transform="translate(-330.73 -135.2)"/><polygon class="cls-2" points="33.09 366.57 33.09 379.46 134.42 379.02 134.42 367.91 33.09 366.57"/><path class="cls-4" d="M443.81,551.56v10.37s7.71,4.14,8.89,6.22,4.15.89-2.37-10.08l-.59-6.22Z" transform="translate(-330.73 -135.2)"/><polyline class="cls-4" points="107.76 343.17 118.13 325.09 145.09 326.57 129.09 352.06"/><path class="cls-4" d="M429,433l2.67-3.56s4.44,3.85,5.92,3.56c0,0,5.63,0,3.26-10.37l-4.74-9.19a9.77,9.77,0,0,0,2.08-3.26c.59-1.78-2.38-8-11.26-1.18s-5.63,10.07-5,13.92l1.78,4.15,6.81.3" transform="translate(-330.73 -135.2)"/><polyline class="cls-4" points="113.9 382.31 110.35 415.5 119.83 417.87 130.5 385.28"/><path class="cls-4" d="M417.74,486.67s-18.59,1.55-23.41-2.67" transform="translate(-330.73 -135.2)"/><path class="cls-2" d="M423.67,427.11s-7.86-12.81,2.14-17.48c0,0,5.12-5.11,9.78-3.11s.52,7,.52,7,6.15,8.59,4.82,14.37-3.41,6.82-9.26,1.63Z" transform="translate(-330.73 -135.2)"/><ellipse class="cls-6" cx="102.92" cy="284.65" rx="5.17" ry="7.44"/><path class="cls-4" d="M423.67,428.3s-21,6.51-29.34,55.7c0,0-3.55,14.52,4.74,17.78s56.3,3.85,56.3,3.85L477,546.22s10.67-4.15,10.67-7.11c0,0-20.45-48.89-25.78-49.18,0,0-41.48-1.78-44.15-3.26,0,0-5.33,0-5-8.6,0,0,3.26-34.66,7.11-38.81s12.15-10.37,12.45,3.26c0,0-3.85,27.85-8.59,32.59,0,0,1.77,3.26,8,4.74,0,0,16.29.3,20.74,3l8.59,5.34" transform="translate(-330.73 -135.2)"/></g><g id="person_right" data-name="person right"><polyline class="cls-4" points="420.81 297.99 480.2 297.99 480.2 264.21 420.81 264.21"/><line class="cls-4" x1="428.87" y1="264.43" x2="428.87" y2="297.76"/><line class="cls-4" x1="421.2" y1="264.54" x2="421.2" y2="297.87"/><line class="cls-4" x1="436.31" y1="264.65" x2="436.31" y2="297.98"/><line class="cls-4" x1="444.64" y1="264.09" x2="444.64" y2="297.43"/><line class="cls-4" x1="453.98" y1="264.54" x2="453.98" y2="297.87"/><line class="cls-4" x1="462.2" y1="264.54" x2="462.2" y2="297.87"/><line class="cls-4" x1="471.42" y1="264.76" x2="471.42" y2="298.09"/><line class="cls-4" x1="421.13" y1="275.39" x2="479.94" y2="275.39"/><line class="cls-4" x1="421.5" y1="287.54" x2="480.31" y2="287.54"/><polygon class="cls-2" points="428.98 286.87 436.09 286.87 436.09 275.31 428.98 275.02 428.98 286.87"/><path class="cls-2" d="M708.15,389.48" transform="translate(-330.73 -135.2)"/><polygon class="cls-2" points="462.75 297.98 470.75 297.98 470.61 287.76 462.75 287.61 462.75 297.98"/><polyline class="cls-1" points="472.12 253.24 502.08 253.24 502.08 305.99 399.57 305.99 399.68 253.24 431.48 253.24"/><path class="cls-4" d="M794.11,399l4.89-4.67s-41.56-31.11-51.78-31.11c0,0-8.22,1.11-6.66,13.11C740.56,376.33,782.78,399.89,794.11,399Z" transform="translate(-330.73 -135.2)"/><path class="cls-4" d="M782.78,382.11,813.22,363s19.34-2.67,12.22,12.22l-30.88,16Z" transform="translate(-330.73 -135.2)"/><path class="cls-4" d="M775.44,319s-14,4-17.11,13.11l.23,20,7.77.22-.22-11.77" transform="translate(-330.73 -135.2)"/><path class="cls-4" d="M773.89,321s4.67,9.33,13.78.89" transform="translate(-330.73 -135.2)"/><path class="cls-4" d="M787.44,319.22s12.23.22,17.34,11.56l1.55,34.89" transform="translate(-330.73 -135.2)"/><path class="cls-4" d="M796.33,323.67s-2.44,2.66-2.66,4.89-.67,35.33-.67,35.33l-9.78,8.44" transform="translate(-330.73 -135.2)"/><path class="cls-4" d="M779,314.33l-6.67-.44s-2-9.11-.22-13.78c0,0-3.78-1.33-4-4.44,0,0-1.55-3.34,2.89-3.11,0,0,5.33,2.22,7.56,1.55,0,0,8-.89,8.44,7.11,0,0,1.56,7.34-1.78,9.11a11,11,0,0,0,.45,5.78s1.33,3.56,3.33,3.78" transform="translate(-330.73 -135.2)"/><polyline class="cls-2" points="455.68 245.5 442.79 217.5 402.79 217.35 411.98 232.31"/><path class="cls-4" d="M799.22,395.37s5,2.37,4.45,5.93c0,0-4.15,10.22-7.41,12.14,0,0-1.48-4.59-.89-12.88Z" transform="translate(-330.73 -135.2)"/><path class="cls-4" d="M768.85,392l-8.44,8,.74,11.85s2.66,5.34,4.44.15a28.38,28.38,0,0,0,1-11.11l13-4.44Z" transform="translate(-330.73 -135.2)"/><path class="cls-10" d="M772.11,300.11s11.48.3,12.08,6.52,3-.15,3-.15,3-9.63-5.93-12.29c0,0-.15,1-9.63-1,0,0-5.33-2.08-3,4.59Z" transform="translate(-330.73 -135.2)"/></g></svg>